<?xml version="1.0" encoding="UTF-8" standalone="no"?>
<!DOCTYPE svg PUBLIC "-//W3C//DTD SVG 1.1//EN" "http://www.w3.org/Graphics/SVG/1.1/DTD/svg11.dtd">
<svg width="100%" height="100%" viewBox="0 0 512 512" version="1.1" xmlns="http://www.w3.org/2000/svg" xmlns:xlink="http://www.w3.org/1999/xlink" xml:space="preserve" xmlns:serif="http://www.serif.com/" style="fill-rule:evenodd;clip-rule:evenodd;stroke-linejoin:round;stroke-miterlimit:2;">
    <path d="M256,512C397.4,512 512,397.4 512,256C512,114.6 397.4,0 256,0C114.6,0 0,114.6 0,256C0,397.4 114.6,512 256,512ZM256,416C220.7,416 192,387.3 192,352C192,316.7 220.7,288 256,288C291.3,288 320,316.7 320,352C320,387.3 291.3,416 256,416ZM100.7,132.7C106.9,126.5 117.1,126.5 123.3,132.7L160,169.4L196.7,132.7C202.9,126.5 213.1,126.5 219.3,132.7C225.5,138.9 225.5,149.1 219.3,155.3L182.6,192L219.3,228.7C225.5,234.9 225.5,245.1 219.3,251.3C213.1,257.5 202.9,257.5 196.7,251.3L160,214.6L123.3,251.3C117.1,257.5 106.9,257.5 100.7,251.3C94.5,245.1 94.5,234.9 100.7,228.7L137.4,192L100.7,155.3C94.5,149.1 94.5,138.9 100.7,132.7ZM292.7,132.7C298.9,126.5 309.1,126.5 315.3,132.7L352,169.4L388.7,132.7C394.9,126.5 405.1,126.5 411.3,132.7C417.5,138.9 417.5,149.1 411.3,155.3L374.6,192L411.3,228.7C417.5,234.9 417.5,245.1 411.3,251.3C405.1,257.5 394.9,257.5 388.7,251.3L352,214.6L315.3,251.3C309.1,257.5 298.9,257.5 292.7,251.3C286.5,245.1 286.5,234.9 292.7,228.7L329.4,192L292.7,155.3C286.5,149.1 286.5,138.9 292.7,132.7Z" style="fill:rgb(151,49,212);fill-rule:nonzero;"/>
</svg>
