<?xml version="1.0" encoding="UTF-8" standalone="no"?>
<!DOCTYPE svg PUBLIC "-//W3C//DTD SVG 1.1//EN" "http://www.w3.org/Graphics/SVG/1.1/DTD/svg11.dtd">
<svg width="100%" height="100%" viewBox="0 0 512 512" version="1.1" xmlns="http://www.w3.org/2000/svg" xmlns:xlink="http://www.w3.org/1999/xlink" xml:space="preserve" xmlns:serif="http://www.serif.com/" style="fill-rule:evenodd;clip-rule:evenodd;stroke-linejoin:round;stroke-miterlimit:2;">
    <path d="M256,512C397.4,512 512,397.4 512,256C512,114.6 397.4,0 256,0C114.6,0 0,114.6 0,256C0,397.4 114.6,512 256,512ZM176.4,240C158.7,240 144.4,225.7 144.4,208C144.4,190.3 158.7,176 176.4,176C194.1,176 208.4,190.3 208.4,208C208.4,225.7 194.1,240 176.4,240ZM368.4,208C368.4,225.7 354.1,240 336.4,240C318.7,240 304.4,225.7 304.4,208C304.4,190.3 318.7,176 336.4,176C354.1,176 368.4,190.3 368.4,208ZM256,416C220.7,416 192,387.3 192,352C192,316.7 220.7,288 256,288C291.3,288 320,316.7 320,352C320,387.3 291.3,416 256,416Z" style="fill:rgb(151,49,212);fill-rule:nonzero;"/>
</svg>
