<?xml version="1.0" encoding="UTF-8" standalone="no"?>
<!DOCTYPE svg PUBLIC "-//W3C//DTD SVG 1.1//EN" "http://www.w3.org/Graphics/SVG/1.1/DTD/svg11.dtd">
<svg width="100%" height="100%" viewBox="0 0 512 512" version="1.1" xmlns="http://www.w3.org/2000/svg" xmlns:xlink="http://www.w3.org/1999/xlink" xml:space="preserve" xmlns:serif="http://www.serif.com/" style="fill-rule:evenodd;clip-rule:evenodd;stroke-linejoin:round;stroke-miterlimit:2;">
    <path d="M476.8,126.3C472.7,127.4 468.4,128 464,128C437.5,128 416,107 416,81C416,76 417.8,69.7 420.6,62.9C420.9,62.2 421.2,61.5 421.5,60.8C430.5,40.6 448,15.9 457.5,3.3C460.7,-1.1 467.1,-1.1 470.3,3.3C483.4,20.6 512,61 512,81C512,102.7 497.1,120.8 476.8,126.3ZM256,0C307.4,0 355.3,15.2 395.4,41.2C393.9,44.3 392.4,47.4 391.1,50.5C387.7,58.5 384,69.5 384,81C384,125.3 420.6,160 464,160C473.6,160 482.8,158.3 491.4,155.2C504.7,186.1 512,220.2 512,256C512,397.4 397.4,512 256,512C114.6,512 0,397.4 0,256C0,114.6 114.6,0 256,0ZM383.8,317.8C345.3,329.4 301.9,336 256,336C210.1,336 166.7,329.4 128.2,317.8C115.9,314.1 103.9,324.8 109,336.5C133.5,393.4 190.1,433.2 256,433.2C321.9,433.2 378.5,393.4 403,336.5C408.1,324.7 396.1,314.1 383.8,317.8ZM217.6,228.8C219.7,231.6 223.3,232.7 226.5,231.6C229.7,230.5 232,227.5 232,224C232,206.1 225.3,188.4 215.4,175.2C205.6,162.2 191.5,152 176,152C160.5,152 146.4,162.2 136.6,175.2C126.7,188.4 120,206.1 120,224C120,227.4 122.2,230.5 125.5,231.6C128.8,232.7 132.4,231.6 134.4,228.8L134.6,228.6C134.8,228.4 135,228.1 135.3,227.7C135.9,226.9 136.9,225.7 138.1,224.3C140.6,221.5 144.1,217.7 148.3,214C157.1,206.2 167.1,200 176,200C184.9,200 194.9,206.2 203.7,214C207.9,217.7 211.4,221.5 213.9,224.3C215.1,225.7 216.1,226.9 216.7,227.7C217,228.1 217.3,228.4 217.4,228.6L217.6,228.8ZM377.6,228.8C379.7,231.6 383.3,232.7 386.5,231.6C389.7,230.5 392,227.5 392,224C392,206.1 385.3,188.4 375.4,175.2C365.6,162.2 351.5,152 336,152C320.5,152 306.4,162.2 296.6,175.2C286.7,188.4 280,206.1 280,224C280,227.4 282.2,230.5 285.5,231.6C288.8,232.7 292.4,231.6 294.4,228.8L294.6,228.6C294.8,228.4 295,228.1 295.3,227.7C295.9,226.9 296.9,225.7 298.1,224.3C300.6,221.5 304.1,217.7 308.3,214C317.1,206.2 327.1,200 336,200C344.9,200 354.9,206.2 363.7,214C367.9,217.7 371.4,221.5 373.9,224.3C375.1,225.7 376.1,226.9 376.7,227.7C377,228.1 377.3,228.4 377.4,228.6L377.6,228.8Z" style="fill:rgb(151,49,212);fill-rule:nonzero;"/>
</svg>
